<?xml version="1.0" standalone="no"?>
<!DOCTYPE svg PUBLIC "-//W3C//DTD SVG 20010904//EN"
 "http://www.w3.org/TR/2001/REC-SVG-20010904/DTD/svg10.dtd">
<svg version="1.0" xmlns="http://www.w3.org/2000/svg"
 width="500.000000pt" height="500.000000pt" viewBox="0 0 500.000000 500.000000"
 preserveAspectRatio="xMidYMid meet">
<metadata>
Created by potrace 1.11, written by Peter Selinger 2001-2013
</metadata>
<g transform="translate(0.000000,500.000000) scale(0.100000,-0.100000)"
fill="#000000" stroke="none">
<path d="M939 4366 c-2 -2 -20 -7 -39 -10 -141 -23 -346 -108 -368 -154 -7
-14 -8 -39 -3 -69 1 -10 418 -9 427 0 12 12 10 218 -2 228 -6 5 -13 7 -15 5z"/>
<path d="M1029 4369 c-1 -2 -2 -57 -3 -121 -1 -76 2 -118 9 -119 5 0 103 -1
218 -2 201 -2 207 -1 208 18 3 120 3 158 -2 166 -6 10 -91 32 -164 43 -53 8
-265 20 -266 15z"/>
<path d="M3777 4364 c-1 -1 -24 -4 -52 -8 -45 -5 -102 -15 -175 -32 -24 -5
-25 -7 -24 -92 1 -48 2 -91 3 -97 1 -6 78 -9 213 -8 117 0 215 2 218 2 5 1 5
205 1 234 -1 7 -176 8 -184 1z"/>
<path d="M4028 4326 c-1 -23 -1 -77 2 -121 l5 -80 213 0 c116 0 212 2 213 5 1
3 2 21 3 40 1 30 -4 38 -34 59 -75 52 -207 102 -327 124 l-71 14 -4 -41z"/>
<path d="M1529 4280 c-5 -83 -2 -150 6 -151 44 -4 329 -3 336 1 11 8 -187 112
-274 145 -65 24 -67 24 -68 5z"/>
<path d="M3330 4247 c-97 -44 -206 -102 -214 -115 -3 -5 260 -8 334 -3 13 1
16 16 15 81 0 98 0 98 -135 37z"/>
<path d="M443 4146 c-10 -11 -9 -15 2 -20 10 -4 15 1 15 14 0 23 -1 24 -17 6z"/>
<path d="M4530 4147 c0 -8 7 -17 15 -21 8 -3 15 -2 15 3 0 5 -7 14 -15 21 -12
10 -15 10 -15 -3z"/>
<path d="M355 4058 c-17 -10 -104 -127 -146 -198 -47 -80 -109 -224 -99 -230
12 -7 338 -5 346 2 9 9 9 417 0 425 -9 10 -84 10 -101 1z"/>
<path d="M537 4058 c-9 -4 -12 -62 -11 -210 1 -111 2 -208 3 -213 1 -7 77 -10
214 -9 116 1 214 2 217 3 7 1 4 420 -3 428 -9 8 -405 10 -420 1z"/>
<path d="M1037 4060 c-9 -4 -12 -57 -11 -210 1 -113 2 -209 3 -215 1 -6 80
-10 216 -10 208 0 215 1 216 20 4 91 3 375 -1 394 l-6 25 -202 0 c-112 1 -208
-1 -215 -4z"/>
<path d="M1537 4058 c-15 -9 -16 -428 -2 -429 64 -7 425 -2 426 6 0 6 2 103 2
218 2 178 0 207 -13 208 -83 4 -404 2 -413 -3z"/>
<path d="M3033 4056 c-8 -13 -9 -406 -1 -419 4 -7 75 -11 213 -11 175 -1 208
1 214 14 6 12 8 398 2 420 -2 9 -423 5 -428 -4z"/>
<path d="M3536 4054 c-9 -8 -13 -260 -7 -409 1 -19 8 -20 216 -20 118 0 216 2
216 5 1 3 2 101 3 218 1 182 -1 212 -14 213 -116 6 -406 2 -414 -7z"/>
<path d="M4032 4056 c-3 -5 -5 -84 -4 -175 1 -91 2 -186 2 -211 l0 -45 208 1
c114 1 212 3 217 3 14 1 14 431 0 432 -66 6 -418 2 -423 -5z"/>
<path d="M4534 4059 c-4 -7 -7 -226 -5 -384 l1 -50 175 1 c96 0 177 2 179 5
10 10 -82 197 -137 280 -91 137 -105 151 -161 153 -26 1 -49 -1 -52 -5z"/>
<path d="M2029 4005 c-4 -62 -3 -358 1 -368 4 -9 51 -12 172 -12 93 0 168 3
168 6 0 19 -140 190 -232 284 -81 83 -108 105 -109 90z"/>
<path d="M2835 3897 c-87 -89 -215 -249 -215 -269 0 -3 287 -2 330 1 13 1 15
29 15 191 0 120 -4 190 -10 190 -5 0 -59 -51 -120 -113z"/>
<path d="M71 3535 c-32 -102 -44 -181 -46 -280 -1 -60 0 -114 2 -120 4 -11
417 -14 428 -3 9 9 10 416 2 425 -4 3 -90 7 -192 7 l-185 1 -9 -30z"/>
<path d="M529 3560 c-4 -17 -3 -430 1 -431 26 -4 62 -4 68 1 4 3 18 30 32 60
25 54 94 150 108 150 4 0 17 -19 30 -42 12 -24 40 -66 61 -95 l39 -51 -42 19
c-50 22 -147 35 -169 23 -13 -8 -12 -13 8 -38 22 -28 26 -29 115 -30 50 -1 94
2 96 6 3 5 10 6 15 2 22 -13 60 -11 67 5 9 20 8 408 -1 418 -8 8 -426 11 -428
3z"/>
<path d="M1031 3555 c-6 -8 -8 -351 -2 -415 1 -13 30 -15 214 -13 116 1 214 2
217 2 7 1 4 420 -3 427 -11 11 -418 10 -426 -1z"/>
<path d="M1532 3555 c-8 -14 -9 -408 -1 -420 5 -6 89 -10 220 -9 l213 0 0 213
c1 118 -3 215 -8 219 -16 10 -418 8 -424 -3z"/>
<path d="M2037 3560 c-9 -4 -12 -60 -12 -218 0 -181 2 -212 15 -213 8 -1 104
-2 213 -3 168 -1 200 1 206 14 5 11 7 341 2 383 -1 4 -8 7 -16 7 -7 0 -18 7
-23 16 -8 15 -33 17 -191 18 -100 1 -187 -1 -194 -4z"/>
<path d="M2567 3545 c-10 -11 -23 -20 -30 -20 -15 0 -17 -384 -2 -393 12 -7
414 -9 423 -2 8 6 10 430 2 431 -3 0 -88 1 -189 2 -173 2 -186 1 -204 -18z"/>
<path d="M3029 3565 c0 0 -1 -98 -2 -218 -2 -211 -1 -217 18 -218 67 -4 415
-3 416 1 1 3 2 101 3 218 1 136 -2 212 -9 213 -7 0 -371 4 -426 4z"/>
<path d="M3539 3562 c-12 -2 -14 -38 -14 -212 1 -115 4 -212 8 -216 11 -12
418 -10 425 1 11 16 8 416 -2 423 -9 5 -389 10 -417 4z"/>
<path d="M4038 3558 c-11 -6 -18 -427 -8 -429 3 0 63 -2 134 -3 l130 -2 25 28
c30 35 49 36 57 3 3 -14 14 -25 23 -26 9 0 26 -2 38 -3 14 -2 24 4 27 13 7 30
1 409 -7 417 -9 10 -404 12 -419 2z m244 -245 c14 -16 37 -48 51 -73 l26 -45
-72 -1 c-53 0 -83 -6 -116 -22 -25 -12 -47 -22 -49 -22 -2 0 9 15 24 33 16 18
45 61 64 95 19 34 38 62 41 62 3 0 17 -12 31 -27z"/>
<path d="M4533 3557 c-7 -11 -5 -418 2 -425 11 -11 416 -8 424 3 4 5 7 60 6
120 -2 113 -35 288 -57 302 -16 9 -369 10 -375 0z"/>
<path d="M49 3060 l-24 -5 1 -165 c1 -91 4 -172 7 -180 2 -8 7 -31 11 -50 l7
-35 199 0 c109 0 202 3 206 7 8 9 9 416 1 425 -7 7 -374 10 -408 3z"/>
<path d="M545 3061 c-19 -6 -20 -14 -19 -211 1 -113 2 -210 3 -215 1 -8 115
-13 128 -6 1 0 -9 17 -22 37 -58 86 -87 242 -63 346 10 46 3 58 -27 49z"/>
<path d="M778 3062 c-21 -2 -38 -5 -38 -6 0 -2 13 -32 30 -67 35 -77 68 -199
76 -289 4 -36 11 -68 16 -71 12 -8 79 -6 93 3 14 8 12 405 -2 419 -11 11 -107
17 -175 11z"/>
<path d="M1032 3055 c-10 -17 -8 -425 3 -426 38 -4 145 -3 145 1 0 28 -49 170
-81 234 l-40 81 42 -40 c24 -22 50 -47 58 -56 26 -26 183 -162 222 -192 50
-38 79 -43 80 -14 1 29 1 365 0 397 l-1 25 -211 0 c-123 0 -213 -4 -217 -10z"/>
<path d="M1529 3050 c-5 -68 -3 -398 2 -410 6 -13 39 -15 216 -14 114 1 210 2
213 3 3 0 5 98 4 217 l0 217 -217 1 c-186 1 -217 -1 -218 -14z"/>
<path d="M2048 3060 c-22 -6 -22 -6 -23 -210 0 -113 1 -209 2 -215 4 -12 417
-14 429 -2 14 14 11 419 -3 424 -17 7 -378 9 -405 3z"/>
<path d="M2531 3050 c-4 -8 -7 -107 -6 -220 l1 -205 209 0 c116 -1 215 0 220
2 11 4 14 418 3 429 -4 3 -100 7 -214 8 -174 1 -207 -1 -213 -14z"/>
<path d="M3047 3062 c-9 -2 -17 -7 -18 -10 -1 -11 -1 -374 0 -402 l1 -25 215
0 c118 0 216 2 216 5 1 3 2 101 3 218 l1 212 -30 1 c-96 3 -374 3 -388 1z"/>
<path d="M3529 3045 c-1 -11 -2 -109 -3 -217 -1 -259 -10 -256 204 -69 47 41
111 99 143 130 l58 56 -39 -80 c-35 -70 -82 -204 -82 -231 0 -5 35 -9 78 -9
l77 1 0 172 c0 95 -3 172 -8 172 -4 0 -5 5 -1 11 3 6 7 26 9 45 2 28 -2 34
-19 35 -12 0 -110 1 -219 2 -191 2 -197 1 -198 -18z"/>
<path d="M4070 3062 c-14 -2 -29 -8 -34 -12 -9 -9 -11 -408 -1 -418 3 -3 27
-6 54 -7 l49 -1 6 73 c9 96 39 213 76 292 17 35 28 66 26 68 -5 6 -142 9 -176
5z"/>
<path d="M4432 3062 c-20 -3 -23 -8 -17 -30 14 -55 13 -171 -1 -228 -9 -33
-30 -86 -49 -120 l-33 -60 62 0 c33 1 63 4 66 8 7 8 6 426 0 430 -3 2 -16 2
-28 0z"/>
<path d="M4553 3062 c-26 -4 -24 19 -25 -256 0 -90 2 -168 5 -173 4 -6 363
-10 398 -4 4 1 10 13 14 29 4 15 9 36 12 47 10 41 9 355 -2 356 -43 2 -385 3
-402 1z"/>
<path d="M91 2560 c-20 -5 -19 -8 13 -85 52 -129 128 -247 205 -319 27 -26 39
-30 91 -31 58 -1 60 0 61 24 3 107 0 403 -4 408 -7 6 -340 10 -366 3z"/>
<path d="M548 2560 l-23 -6 -1 -204 c0 -113 1 -210 3 -215 4 -12 417 -14 429
-2 5 4 8 101 9 215 0 233 5 220 -79 214 -36 -3 -44 -8 -53 -33 -13 -33 -27
-32 -81 9 -27 21 -44 25 -107 26 -41 0 -84 -1 -97 -4z"/>
<path d="M1050 2561 l-25 -6 0 -212 c0 -135 4 -213 10 -214 79 -9 83 -7 108
40 25 45 40 92 53 161 9 51 7 211 -2 220 -11 11 -110 18 -144 11z"/>
<path d="M1555 2560 l-29 -5 0 -203 c-1 -111 1 -208 4 -215 6 -16 429 -18 431
-2 5 45 3 409 -2 417 -7 10 -351 17 -404 8z"/>
<path d="M2031 2550 c-5 -11 -7 -395 -2 -420 1 -3 98 -5 216 -5 118 0 215 2
216 5 0 3 2 101 2 218 l2 212 -25 1 c-14 0 -110 1 -213 2 -160 2 -190 0 -196
-13z"/>
<path d="M2545 2562 c-19 -3 -20 -10 -18 -215 1 -117 2 -214 2 -217 1 -4 415
-5 431 -1 8 2 5 419 -3 427 -6 6 -372 12 -412 6z"/>
<path d="M3031 2550 c-5 -12 -6 -279 -2 -400 l1 -25 215 0 c118 0 216 2 216 5
1 3 2 99 3 214 1 162 -2 210 -12 213 -7 3 -103 6 -213 7 -170 1 -202 -1 -208
-14z"/>
<path d="M3799 2565 c-10 0 -13 -192 -4 -240 19 -99 53 -179 83 -193 15 -7 44
-8 77 -4 7 1 10 77 9 215 -1 116 -2 214 -3 217 0 3 -37 5 -81 5 -44 0 -80 0
-81 0z"/>
<path d="M4046 2561 c-18 -7 -19 -20 -18 -207 1 -109 2 -206 2 -214 0 -13 30
-15 218 -15 l217 0 0 212 c0 116 -3 215 -7 219 -4 3 -47 7 -97 7 -84 0 -91 -1
-131 -31 -46 -34 -67 -33 -76 4 -5 17 -13 24 -33 25 -14 0 -33 2 -41 3 -8 2
-23 0 -34 -3z"/>
<path d="M4558 2562 c-25 -3 -28 -8 -29 -40 0 -42 0 -384 1 -393 0 -3 27 -5
60 -4 55 0 62 3 101 40 47 46 137 178 167 246 20 43 62 147 62 152 0 3 -332 2
-362 -1z"/>
<path d="M1447 2523 c-6 -52 -1 -282 7 -290 7 -8 8 1 8 180 1 137 -5 183 -15
110z"/>
<path d="M3531 2545 c-6 -74 -5 -295 2 -295 4 0 7 1 7 3 8 71 9 216 2 257 -5
30 -10 46 -11 35z"/>
<path d="M635 2060 c-102 -5 -110 -7 -110 -25 0 -15 13 -25 55 -39 66 -23 270
-28 336 -8 41 12 59 37 45 60 -8 13 -172 19 -326 12z"/>
<path d="M1612 2060 l-93 -5 23 -42 c13 -24 64 -85 115 -137 53 -55 110 -126
134 -168 24 -40 44 -75 46 -77 7 -10 114 -7 120 3 4 6 7 105 8 221 l0 210
-130 0 c-71 0 -172 -2 -223 -5z"/>
<path d="M2070 2060 l-45 -5 1 -205 c1 -113 2 -210 3 -215 1 -7 78 -10 216
-10 184 0 215 2 216 15 4 60 3 403 -1 413 -5 12 -294 18 -390 7z"/>
<path d="M2635 2062 l-110 -3 2 -202 c1 -111 2 -209 2 -217 1 -13 30 -15 211
-15 150 0 213 3 218 12 4 6 7 103 7 215 l-1 203 -109 5 c-61 3 -159 4 -220 2z"/>
<path d="M3165 2060 l-140 -5 0 -210 c0 -177 2 -211 15 -216 16 -6 109 -4 113
2 2 2 23 37 46 78 26 44 81 112 137 170 79 80 142 166 131 178 -7 6 -170 8
-302 3z"/>
<path d="M4148 2062 l-118 -3 0 -29 c0 -26 5 -31 43 -42 113 -34 391 -3 394
43 1 11 -4 22 -10 24 -18 7 -177 10 -309 7z"/>
<path d="M445 2050 c3 -5 8 -10 11 -10 2 0 4 5 4 10 0 6 -5 10 -11 10 -5 0 -7
-4 -4 -10z"/>
<path d="M1020 2050 c0 -5 7 -7 15 -4 8 4 15 8 15 10 0 2 -7 4 -15 4 -8 0 -15
-4 -15 -10z"/>
<path d="M3948 2053 c7 -3 16 -2 19 1 4 3 -2 6 -13 5 -11 0 -14 -3 -6 -6z"/>
<path d="M4530 2049 c0 -5 5 -7 10 -4 6 3 10 8 10 11 0 2 -4 4 -10 4 -5 0 -10
-5 -10 -11z"/>
<path d="M1917 1563 c-41 -4 -48 -7 -42 -21 31 -79 65 -210 72 -277 11 -105
18 -57 18 121 0 101 0 183 0 182 0 -1 -22 -3 -48 -5z"/>
<path d="M2026 1345 l0 -220 213 0 c127 0 215 4 219 9 3 6 6 104 6 218 l1 208
-30 1 c-16 0 -115 1 -220 2 l-190 2 1 -220z"/>
<path d="M2576 1560 l-49 -5 0 -200 c1 -110 2 -207 2 -215 1 -13 31 -15 216
-15 118 0 215 2 216 5 4 19 3 430 -1 430 -43 4 -348 4 -384 0z"/>
<path d="M3025 1389 c0 -97 3 -175 8 -172 4 2 7 16 7 31 0 35 45 221 65 268 8
21 14 38 13 40 -2 1 -23 4 -48 6 l-45 4 0 -177z"/>
<path d="M2027 1019 c8 -103 149 -285 265 -343 55 -27 154 -53 165 -43 3 4 7
100 7 214 l1 208 -221 3 -220 2 3 -41z"/>
<path d="M2527 868 c0 -106 2 -204 2 -217 1 -21 4 -23 39 -17 154 28 269 118
361 287 16 30 31 73 33 95 l3 39 -220 3 -220 2 2 -192z"/>
</g>
</svg>
